<svg xmlns="http://www.w3.org/2000/svg" viewBox="0 0 32 32" width="32" height="32">
  <defs>
    <!-- Gradient tanımları -->
    <linearGradient id="robotGradient" x1="0%" y1="0%" x2="100%" y2="100%">
      <stop offset="0%" style="stop-color:#3B82F6;stop-opacity:1" />
      <stop offset="100%" style="stop-color:#8B5CF6;stop-opacity:1" />
    </linearGradient>
    <linearGradient id="eyeGradient" x1="0%" y1="0%" x2="100%" y2="100%">
      <stop offset="0%" style="stop-color:#10B981;stop-opacity:1" />
      <stop offset="100%" style="stop-color:#06B6D4;stop-opacity:1" />
    </linearGradient>
    <linearGradient id="tweetGradient" x1="0%" y1="0%" x2="100%" y2="100%">
      <stop offset="0%" style="stop-color:#1DA1F2;stop-opacity:1" />
      <stop offset="100%" style="stop-color:#0EA5E9;stop-opacity:1" />
    </linearGradient>
  </defs>
  
  <!-- Arka plan daire -->
  <circle cx="16" cy="16" r="15" fill="url(#robotGradient)" stroke="#1E293B" stroke-width="1"/>
  
  <!-- Robot kafası -->
  <rect x="8" y="10" width="16" height="12" rx="3" ry="3" fill="#F8FAFC" stroke="#334155" stroke-width="0.5"/>
  
  <!-- Robot gözleri -->
  <circle cx="12" cy="15" r="2" fill="url(#eyeGradient)"/>
  <circle cx="20" cy="15" r="2" fill="url(#eyeGradient)"/>
  
  <!-- Robot gözlerinin içi (parlama efekti) -->
  <circle cx="12.5" cy="14.5" r="0.8" fill="#FFFFFF" opacity="0.8"/>
  <circle cx="20.5" cy="14.5" r="0.8" fill="#FFFFFF" opacity="0.8"/>
  
  <!-- Robot ağzı -->
  <rect x="14" y="18" width="4" height="1.5" rx="0.75" fill="#64748B"/>
  
  <!-- Robot antenler -->
  <line x1="11" y1="10" x2="11" y2="7" stroke="#334155" stroke-width="1" stroke-linecap="round"/>
  <line x1="21" y1="10" x2="21" y2="7" stroke="#334155" stroke-width="1" stroke-linecap="round"/>
  <circle cx="11" cy="7" r="1" fill="#EF4444"/>
  <circle cx="21" cy="7" r="1" fill="#EF4444"/>
  
  <!-- Tweet kuşu simgesi (küçük) -->
  <g transform="translate(22, 22) scale(0.3)">
    <path d="M23.953 4.57a10 10 0 01-2.825.775 4.958 4.958 0 002.163-2.723c-.951.555-2.005.959-3.127 1.184a4.92 4.92 0 00-8.384 4.482C7.69 8.095 4.067 6.13 1.64 3.162a4.822 4.822 0 00-.666 2.475c0 1.71.87 3.213 2.188 4.096a4.904 4.904 0 01-2.228-.616v.06a4.923 4.923 0 003.946 4.827 4.996 4.996 0 01-2.212.085 4.936 4.936 0 004.604 3.417 9.867 9.867 0 01-6.102 2.105c-.39 0-.779-.023-1.17-.067a13.995 13.995 0 007.557 2.209c9.053 0 13.998-7.496 13.998-13.985 0-.21 0-.42-.015-.63A9.935 9.935 0 0024 4.59z" 
          fill="url(#tweetGradient)"/>
  </g>
  
  <!-- AI simgesi (küçük çip) -->
  <g transform="translate(4, 22)">
    <rect x="0" y="0" width="6" height="4" rx="1" fill="#10B981" opacity="0.8"/>
    <rect x="1" y="1" width="4" height="2" rx="0.5" fill="#FFFFFF"/>
    <rect x="1.5" y="1.5" width="1" height="1" fill="#10B981"/>
    <rect x="3.5" y="1.5" width="1" height="1" fill="#10B981"/>
  </g>
</svg> 